<svg width="144" height="126" viewBox="0 0 144 126" fill="none" xmlns="http://www.w3.org/2000/svg">
<path id="Combined Shape" fill-rule="evenodd" clip-rule="evenodd" d="M138.707 48.8706C139.877 47.6266 141.823 47.5955 143.045 48.7773C144.276 49.9591 144.322 51.9185 143.153 53.1625L122.661 74.964C122.06 75.6171 121.249 75.9281 120.439 75.9281C119.678 75.9281 118.916 75.6482 118.324 75.0573L96.8104 54.3132C95.5825 53.1314 95.5333 51.1721 96.706 49.928C97.8756 48.684 99.8188 48.6218 101.044 49.8036L118.051 66.2247C119.727 36.617 98.4128 10.3059 68.964 6.66716C54.109 4.83223 39.4353 8.9686 27.6471 18.2988C15.862 27.6289 8.37163 41.0644 6.56043 56.1171C4.74923 71.1697 8.8321 86.0358 18.0569 97.9784C27.2818 109.921 40.5404 117.51 55.3984 119.344C78.2993 122.175 100.295 110.761 111.368 90.2033C112.181 88.7104 114.048 88.1506 115.536 88.9903C117.022 89.799 117.572 91.6961 116.758 93.1889C105.71 113.684 84.8995 126 62.3301 126C59.7882 126 57.228 125.844 54.6555 125.533C38.1674 123.481 23.4537 115.084 13.2189 101.835C2.98408 88.586 -1.54393 72.0716 0.466814 55.3706C2.47448 38.6696 10.7845 23.7725 23.862 13.3849C36.9395 3.0284 53.2034 -1.57448 69.7069 0.478152C101.587 4.42792 124.945 32.294 124.344 64.1721L138.707 48.8706ZM35.448 76.536V81H58.584V75.96H44.04C45.544 74.744 47.096 73.424 48.696 72C50.296 70.576 51.784 69.048 53.16 67.416C54.536 65.784 55.648 64.088 56.496 62.328C57.344 60.568 57.768 58.76 57.768 56.904C57.768 53.928 56.816 51.504 54.912 49.632C53.008 47.76 50.344 46.824 46.92 46.824C44.808 46.824 42.904 47.232 41.208 48.048C39.512 48.864 38.152 50.096 37.128 51.744C36.104 53.392 35.56 55.448 35.496 57.912H41.448C41.448 56.28 41.896 54.888 42.792 53.736C43.688 52.584 45.016 52.008 46.776 52.008C48.504 52.008 49.744 52.536 50.496 53.592C51.248 54.648 51.624 55.864 51.624 57.24C51.624 58.712 51.168 60.224 50.256 61.776C49.344 63.328 48.128 64.92 46.608 66.552C45.088 68.184 43.36 69.832 41.424 71.496C39.488 73.16 37.496 74.84 35.448 76.536ZM79.032 74.76V81H85.176V74.76H89.592V69.432H85.176V47.4H78.216L62.472 69.864V74.76H79.032ZM79.416 69.432H69.048L79.416 54.168V69.432Z" fill="url(#paint0_linear_0_60)"/>
<defs>
<linearGradient id="paint0_linear_0_60" x1="72" y1="-63" x2="-52.885" y2="79.7257" gradientUnits="userSpaceOnUse">
<stop stop-color="#FFC105"/>
<stop offset="1" stop-color="#737CFF"/>
</linearGradient>
</defs>
</svg>
