<svg width="186" height="96" viewBox="0 0 186 96" fill="none" xmlns="http://www.w3.org/2000/svg">
<path id="Combined Shape" fill-rule="evenodd" clip-rule="evenodd" d="M144 0H36V78H54.3001C54.1033 78.9693 54 79.9726 54 81C54 89.2843 60.7157 96 69 96C77.2843 96 84 89.2843 84 81C84 79.9726 83.8967 78.9693 83.6999 78H138H144H144.3C144.103 78.9693 144 79.9726 144 81C144 89.2843 150.716 96 159 96C167.284 96 174 89.2843 174 81C174 79.9726 173.897 78.9693 173.7 78H186V42L174 18H144V0ZM159 66C163.907 66 168.264 68.3567 171.001 72H180V48H144V72H146.999C149.736 68.3567 154.093 66 159 66ZM170.292 24L179.292 42H162V24H170.292ZM156 24H144V42H156V24ZM81.0011 72H138V18V6H42V72H56.9989C59.7355 68.3567 64.0925 66 69 66C73.9075 66 78.2645 68.3567 81.0011 72ZM30 12H0V18H30V12ZM12 24H30V30H12V24ZM30 36H18V42H30V36Z" fill="url(#paint0_linear_0_41)"/>
<defs>
<linearGradient id="paint0_linear_0_41" x1="93" y1="-48" x2="14.7486" y2="103.612" gradientUnits="userSpaceOnUse">
<stop stop-color="#FFC105"/>
<stop offset="1" stop-color="#737CFF"/>
</linearGradient>
</defs>
</svg>
